<svg width="419" height="286" viewBox="0 0 419 286" fill="none" xmlns="http://www.w3.org/2000/svg">
<g clip-path="url(#clip0_94_8650)">
<rect width="375" height="812" transform="translate(22 19)" fill="white"/>
<path opacity="0.35" d="M358.5 39C358.5 37.8034 359.47 36.8334 360.667 36.8334H377.333C378.53 36.8334 379.5 37.8034 379.5 39V45C379.5 46.1967 378.53 47.1667 377.333 47.1667H360.667C359.47 47.1667 358.5 46.1967 358.5 45V39Z" stroke="black"/>
<path opacity="0.4" d="M381 40V44C381.805 43.6613 382.328 42.8732 382.328 42C382.328 41.1269 381.805 40.3388 381 40Z" fill="black"/>
<path d="M360 39.6667C360 38.9303 360.597 38.3334 361.333 38.3334H376.667C377.403 38.3334 378 38.9303 378 39.6667V44.3334C378 45.0698 377.403 45.6667 376.667 45.6667H361.333C360.597 45.6667 360 45.0698 360 44.3334V39.6667Z" fill="black"/>
<path fill-rule="evenodd" clip-rule="evenodd" d="M345.33 38.608C347.546 38.6081 349.677 39.4596 351.283 40.9863C351.404 41.1042 351.597 41.1027 351.716 40.983L352.872 39.8163C352.933 39.7556 352.966 39.6734 352.966 39.5878C352.965 39.5022 352.931 39.4204 352.87 39.3603C348.655 35.3208 342.005 35.3208 337.79 39.3603C337.729 39.4203 337.694 39.5021 337.693 39.5877C337.693 39.6733 337.726 39.7556 337.787 39.8163L338.943 40.983C339.062 41.1029 339.255 41.1044 339.376 40.9863C340.982 39.4595 343.114 38.608 345.33 38.608ZM345.33 42.4037C346.547 42.4036 347.721 42.8561 348.624 43.6733C348.746 43.7893 348.938 43.7868 349.057 43.6677L350.212 42.501C350.273 42.4398 350.307 42.3568 350.306 42.2705C350.305 42.1843 350.269 42.102 350.207 42.042C347.459 39.4856 343.203 39.4856 340.455 42.042C340.393 42.102 340.357 42.1843 340.357 42.2706C340.356 42.3569 340.39 42.4399 340.451 42.501L341.605 43.6677C341.724 43.7868 341.916 43.7893 342.038 43.6733C342.94 42.8567 344.113 42.4042 345.33 42.4037ZM347.643 44.9575C347.645 45.044 347.611 45.1274 347.549 45.188L345.552 47.2037C345.493 47.2629 345.413 47.2963 345.33 47.2963C345.247 47.2963 345.167 47.2629 345.108 47.2037L343.111 45.188C343.049 45.1274 343.015 45.0439 343.017 44.9574C343.019 44.8709 343.056 44.789 343.12 44.731C344.396 43.6521 346.264 43.6521 347.54 44.731C347.604 44.7891 347.641 44.871 347.643 44.9575Z" fill="black"/>
<path fill-rule="evenodd" clip-rule="evenodd" d="M331.667 36.6666H330.667C330.114 36.6666 329.667 37.1143 329.667 37.6666V46.3333C329.667 46.8856 330.114 47.3333 330.667 47.3333H331.667C332.219 47.3333 332.667 46.8856 332.667 46.3333V37.6666C332.667 37.1143 332.219 36.6666 331.667 36.6666ZM326 39H327C327.552 39 328 39.4477 328 40V46.3333C328 46.8856 327.552 47.3333 327 47.3333H326C325.448 47.3333 325 46.8856 325 46.3333V40C325 39.4477 325.448 39 326 39ZM322.333 41.3333H321.333C320.781 41.3333 320.333 41.781 320.333 42.3333V46.3333C320.333 46.8856 320.781 47.3333 321.333 47.3333H322.333C322.885 47.3333 323.333 46.8856 323.333 46.3333V42.3333C323.333 41.781 322.885 41.3333 322.333 41.3333ZM317.667 43.3333H316.667C316.114 43.3333 315.667 43.781 315.667 44.3333V46.3333C315.667 46.8856 316.114 47.3333 316.667 47.3333H317.667C318.219 47.3333 318.667 46.8856 318.667 46.3333V44.3333C318.667 43.781 318.219 43.3333 317.667 43.3333Z" fill="black"/>
<path d="M59.3208 47.2563C62.0088 47.2563 63.6055 45.1543 63.6055 41.5947C63.6055 40.2544 63.3491 39.1265 62.8584 38.2549C62.1479 36.8999 60.9248 36.1675 59.3794 36.1675C57.0796 36.1675 55.4536 37.7129 55.4536 39.8809C55.4536 41.917 56.9185 43.3965 58.9326 43.3965C60.1704 43.3965 61.1738 42.8179 61.6719 41.8145H61.6938C61.6938 41.8145 61.7231 41.8145 61.7305 41.8145C61.7451 41.8145 61.7964 41.8145 61.7964 41.8145C61.7964 44.2314 60.8809 45.6743 59.3354 45.6743C58.4272 45.6743 57.7241 45.1763 57.4824 44.3779H55.6001C55.915 46.1138 57.3872 47.2563 59.3208 47.2563ZM59.3867 41.895C58.1709 41.895 57.3066 41.0308 57.3066 39.8223C57.3066 38.6431 58.2148 37.7422 59.394 37.7422C60.5732 37.7422 61.4814 38.6577 61.4814 39.8516C61.4814 41.0308 60.5952 41.895 59.3867 41.895Z" fill="black"/>
<path d="M66.6966 47.1538C67.3924 47.1538 67.8685 46.6558 67.8685 45.9966C67.8685 45.3301 67.3924 44.8394 66.6966 44.8394C66.0081 44.8394 65.5247 45.3301 65.5247 45.9966C65.5247 46.6558 66.0081 47.1538 66.6966 47.1538ZM66.6966 41.6606C67.3924 41.6606 67.8685 41.1699 67.8685 40.5107C67.8685 39.8442 67.3924 39.3535 66.6966 39.3535C66.0081 39.3535 65.5247 39.8442 65.5247 40.5107C65.5247 41.1699 66.0081 41.6606 66.6966 41.6606Z" fill="black"/>
<path d="M74.7242 47H76.5333V45.0298H77.9615V43.4331H76.5333V36.4312H73.8673C71.9996 39.2437 70.5128 41.5947 69.5606 43.3452V45.0298H74.7242V47ZM71.3111 43.3672C72.5416 41.1992 73.6402 39.4634 74.651 37.9692H74.7535V43.4771H71.3111V43.3672Z" fill="black"/>
<path d="M81.9901 47H83.8798V36.4312H81.9975L79.2362 38.3647V40.1812L81.8656 38.3354H81.9901V47Z" fill="black"/>
</g>
<path d="M415.41 217.949H416.89C417.707 217.949 418.37 218.614 418.37 219.435V316.521C418.37 317.342 417.707 318.007 416.89 318.007H415.41V217.949Z" fill="#303030"/>
<path d="M3.9585 338.811L2.47845 338.811C1.66105 338.811 0.998413 338.146 0.998413 337.325L0.998418 278.875C0.998418 278.055 1.66105 277.389 2.47846 277.389L3.9585 277.389L3.9585 338.811Z" fill="#303030"/>
<path d="M3.9585 257.576L2.47845 257.576C1.66105 257.576 0.998413 256.91 0.998413 256.09L0.998418 197.64C0.998418 196.819 1.66105 196.154 2.47846 196.154L3.9585 196.154L3.9585 257.576Z" fill="#333333"/>
<path d="M3.9585 166.434L2.47846 166.434C1.66105 166.434 0.998417 165.768 0.998417 164.948L0.99842 136.218C0.99842 135.397 1.66106 134.732 2.47846 134.732L3.9585 134.732L3.9585 166.434Z" fill="#333333"/>
<path fill-rule="evenodd" clip-rule="evenodd" d="M7.09798 44.4951C3.95898 54.1949 3.95898 66.1805 3.95898 90.1515V759.849C3.95898 783.82 3.95898 795.805 7.09798 805.505C13.4421 825.109 28.7501 840.479 48.2752 846.848C57.936 850 69.8733 850 93.748 850H325.621C349.495 850 361.433 850 371.094 846.848C390.619 840.479 405.927 825.109 412.271 805.505C415.41 795.805 415.41 783.82 415.41 759.849V90.1515C415.41 66.1805 415.41 54.1949 412.271 44.4951C405.927 24.8912 390.619 9.52138 371.094 3.15166C361.433 0 349.495 0 325.621 0H93.748C69.8733 0 57.936 0 48.2752 3.15166C28.7501 9.52138 13.4421 24.8912 7.09798 44.4951ZM108.549 24.2716V28.7296L108.62 28.7274L108.549 29.2249C108.549 40.9883 118.047 50.5245 129.763 50.5245H289.607C301.323 50.5245 310.821 40.9883 310.821 29.2249L310.75 28.7274L310.82 28.7296V24.2716C310.82 21.2623 313.25 18.8229 316.247 18.8229L328.956 18.8228C348.824 18.8228 358.758 18.8228 366.681 21.8287C379.134 26.5532 388.964 36.4231 393.669 48.9262C396.663 56.8809 396.663 66.8549 396.663 86.803V763.197C396.663 783.145 396.663 793.119 393.669 801.074C388.964 813.577 379.134 823.447 366.681 828.171C358.758 831.177 348.824 831.177 328.956 831.177H90.4134C70.5456 831.177 60.6117 831.177 52.6889 828.171C40.2361 823.447 30.4059 813.577 25.7004 801.074C22.7066 793.119 22.7066 783.145 22.7066 763.197V86.803C22.7066 66.8549 22.7066 56.8809 25.7004 48.9262C30.4059 36.4231 40.2361 26.5532 52.6889 21.8287C60.6117 18.8228 70.5456 18.8228 90.4135 18.8228L103.122 18.8229C106.12 18.8229 108.549 21.2623 108.549 24.2716Z" fill="#333333"/>
<path fill-rule="evenodd" clip-rule="evenodd" d="M326.016 1.98152H93.3535C69.7693 1.98152 58.2112 1.99374 48.8851 5.03621C29.9608 11.2099 15.1238 26.1068 8.9749 45.1076C5.94467 54.4713 5.93249 66.076 5.93249 89.7554V760.245C5.93249 783.924 5.94467 795.529 8.9749 804.893C15.1238 823.894 29.9608 838.79 48.8851 844.964C58.2112 848.007 69.7693 848.019 93.3535 848.019H326.016C349.6 848.019 361.158 848.007 370.484 844.964C389.408 838.79 404.245 823.894 410.394 804.893C413.424 795.529 413.437 783.924 413.437 760.245V89.7554C413.437 66.076 413.424 54.4713 410.394 45.1076C404.245 26.1068 389.408 11.2099 370.484 5.03621C361.158 1.99374 349.6 1.98152 326.016 1.98152ZM8.0365 44.8014C4.9458 54.352 4.9458 66.1531 4.9458 89.7554V760.245C4.9458 783.847 4.9458 795.648 8.0365 805.199C14.283 824.501 29.3555 839.635 48.5802 845.906C58.0924 849.01 69.8461 849.01 93.3535 849.01H326.016C349.523 849.01 361.277 849.01 370.789 845.906C390.014 839.635 405.086 824.501 411.333 805.199C414.423 795.648 414.423 783.847 414.423 760.245V89.7554C414.423 66.1532 414.423 54.352 411.333 44.8014C405.086 25.4991 390.014 10.3657 370.789 4.09402C361.277 0.990845 349.523 0.990845 326.016 0.990845H93.3535C69.8461 0.990845 58.0924 0.990845 48.5802 4.09402C29.3555 10.3657 14.283 25.4991 8.0365 44.8014Z" fill="#303030"/>
<path fill-rule="evenodd" clip-rule="evenodd" d="M11.7925 46.0258C8.89502 54.9795 8.89502 66.043 8.89502 88.1702V761.83C8.89502 783.957 8.89502 795.02 11.7925 803.974C17.6486 822.07 31.7791 836.258 49.8023 842.137C58.72 845.047 69.739 845.047 91.7772 845.047H327.597C349.635 845.047 360.654 845.047 369.572 842.137C387.595 836.258 401.725 822.07 407.581 803.974C410.479 795.02 410.479 783.957 410.479 761.83V88.1702C410.479 66.043 410.479 54.9795 407.581 46.0258C401.725 27.9298 387.595 13.7423 369.572 7.8626C360.654 4.95337 349.635 4.95337 327.597 4.95337H91.7772C69.739 4.95337 58.72 4.95337 49.8023 7.8626C31.7791 13.7423 17.6486 27.9298 11.7925 46.0258ZM108.551 24.2716V28.7296L108.621 28.7274L108.55 29.2249C108.55 40.9883 118.048 50.5244 129.764 50.5244H289.608C301.324 50.5244 310.822 40.9883 310.822 29.2249L310.751 28.7274L310.822 28.7296V24.2716C310.822 21.2623 313.252 18.8228 316.249 18.8228L328.958 18.8228C348.826 18.8228 358.759 18.8228 366.682 21.8286C379.135 26.5532 388.965 36.423 393.671 48.9262C396.665 56.8809 396.665 66.8549 396.665 86.803V763.197C396.665 783.145 396.665 793.119 393.671 801.074C388.965 813.577 379.135 823.447 366.682 828.171C358.759 831.177 348.826 831.177 328.958 831.177H90.4149C70.547 831.177 60.6131 831.177 52.6904 828.171C40.2375 823.447 30.4073 813.577 25.7018 801.074C22.708 793.119 22.708 783.145 22.708 763.197V86.803C22.708 66.8549 22.708 56.8809 25.7018 48.9262C30.4073 36.423 40.2375 26.5532 52.6904 21.8286C60.6131 18.8228 70.547 18.8228 90.4149 18.8228L103.124 18.8228C106.121 18.8228 108.551 21.2623 108.551 24.2716Z" fill="#121515"/>
<rect x="327.595" width="5.92014" height="4.95338" fill="#414141"/>
<rect x="410.477" y="85.1981" width="4.93353" height="5.94405" fill="#414141"/>
<rect x="3.95996" y="85.1981" width="4.93346" height="5.94405" fill="#414141"/>
<path fill-rule="evenodd" clip-rule="evenodd" d="M251.62 39.6271C255.979 39.6271 259.513 36.0787 259.513 31.7017C259.513 27.3246 255.979 23.7762 251.62 23.7762C247.26 23.7762 243.726 27.3246 243.726 31.7017C243.726 36.0787 247.26 39.6271 251.62 39.6271Z" fill="#262C2D"/>
<path fill-rule="evenodd" clip-rule="evenodd" d="M251.619 36.655C254.343 36.655 256.552 34.4373 256.552 31.7016C256.552 28.966 254.343 26.7483 251.619 26.7483C248.894 26.7483 246.685 28.966 246.685 31.7016C246.685 34.4373 248.894 36.655 251.619 36.655Z" fill="#121515"/>
<path opacity="0.4" fill-rule="evenodd" clip-rule="evenodd" d="M251.62 30.7119C252.166 30.7119 252.608 30.2681 252.608 29.7207C252.608 29.1733 252.166 28.7296 251.62 28.7296C251.075 28.7296 250.633 29.1733 250.633 29.7207C250.633 30.2681 251.075 30.7119 251.62 30.7119Z" fill="#636F73"/>
<path fill-rule="evenodd" clip-rule="evenodd" d="M185.512 31.7016C185.512 30.0602 186.842 28.7296 188.484 28.7296H230.888C232.529 28.7296 233.86 30.0602 233.86 31.7016C233.86 33.343 232.529 34.6737 230.888 34.6737H188.484C186.842 34.6737 185.512 33.343 185.512 31.7016Z" fill="#262C2D"/>
<defs>
<clipPath id="clip0_94_8650">
<rect width="375" height="812" fill="white" transform="translate(22 19)"/>
</clipPath>
</defs>
</svg>