<?xml version="1.0" standalone="no"?>
<!DOCTYPE svg PUBLIC "-//W3C//DTD SVG 20010904//EN"
 "http://www.w3.org/TR/2001/REC-SVG-20010904/DTD/svg10.dtd">
<svg version="1.0" xmlns="http://www.w3.org/2000/svg"
 width="1024.000000pt" height="1024.000000pt" viewBox="0 0 1024.000000 1024.000000"
 preserveAspectRatio="xMidYMid meet">

<g transform="translate(0.000000,1024.000000) scale(0.100000,-0.100000)"
fill="#000000" stroke="none">
<path d="M4810 9679 c-363 -44 -718 -197 -992 -425 -204 -170 -376 -422 -438
-644 -30 -104 -38 -306 -17 -416 l15 -81 -66 -70 c-79 -82 -134 -172 -165
-268 -18 -59 -22 -92 -22 -210 1 -126 3 -147 27 -207 63 -165 176 -294 319
-366 79 -40 195 -72 258 -72 l28 0 6 -102 c4 -57 14 -130 23 -162 17 -65 75
-185 123 -256 l31 -45 0 -158 0 -158 -37 -15 c-581 -237 -1145 -523 -1493
-757 -67 -46 -319 -232 -472 -349 -149 -114 -640 -594 -835 -815 -55 -62 -55
-62 -36 -86 10 -12 96 -116 191 -229 l172 -206 -35 -114 c-20 -62 -60 -185
-89 -273 -29 -88 -62 -191 -74 -230 -11 -38 -42 -139 -68 -222 l-48 -153 -283
0 c-156 0 -283 -3 -283 -8 0 -4 6 -16 13 -27 8 -11 49 -87 92 -170 43 -82 131
-249 195 -370 64 -121 173 -328 242 -460 70 -132 134 -255 145 -272 l18 -33
190 0 190 0 100 -195 c87 -172 102 -195 123 -195 27 0 27 2 3 -117 l-8 -43
198 0 c110 0 199 2 199 4 0 2 -13 36 -30 74 -16 39 -30 72 -30 74 0 3 4445 -1
5192 -5 l466 -2 -29 -68 c-16 -38 -29 -71 -29 -73 0 -2 94 -4 210 -4 l209 0
-6 84 c-5 78 -5 84 13 83 15 -2 39 38 117 191 l97 192 189 0 189 0 25 43 c13
23 50 92 82 152 118 226 157 300 373 701 122 226 224 419 228 428 6 14 -15 16
-224 16 l-230 0 -10 43 c-10 39 -43 213 -172 892 -28 149 -66 347 -85 440 -18
94 -50 265 -71 381 l-37 210 46 43 c56 52 101 120 126 192 10 31 35 148 56
262 l37 207 -124 177 c-68 98 -134 195 -147 216 l-23 37 41 123 c22 67 79 246
126 397 48 151 118 369 156 485 37 115 67 210 66 211 -1 1 -103 23 -227 48
-124 26 -235 50 -246 53 -15 3 -23 -1 -27 -14 -3 -10 -26 -72 -52 -138 -39
-101 -91 -239 -192 -513 -9 -24 -22 -46 -29 -49 -7 -2 -57 5 -111 16 -54 11
-183 38 -288 60 l-190 41 -225 -120 c-124 -65 -249 -132 -277 -147 -29 -15
-53 -33 -53 -39 0 -6 22 -62 49 -125 l49 -114 -26 -16 c-75 -44 -331 -179
-341 -179 -7 0 -66 29 -131 65 -129 71 -335 171 -527 255 l-123 54 0 157 0
158 54 75 c87 122 136 271 136 416 l0 67 63 6 c245 23 457 199 542 448 24 72
28 100 29 199 0 94 -4 127 -22 184 -41 123 -88 200 -178 292 l-54 56 16 81
c24 119 15 311 -21 431 -64 218 -201 421 -414 613 -244 221 -552 374 -873 434
-129 24 -424 34 -548 18z m245 -265 c-83 -127 -264 -246 -426 -280 -60 -12
-386 -36 -397 -29 -7 5 39 94 64 124 53 63 268 146 480 186 80 15 283 35 293
28 2 -1 -4 -15 -14 -29z m483 -56 c50 -15 72 -26 72 -37 0 -46 -109 -215 -177
-277 -38 -33 -88 -59 -147 -73 -103 -25 -431 -6 -382 23 105 61 178 120 273
223 85 91 120 122 167 144 65 31 78 31 194 -3z m-1478 -347 c0 -5 -7 -15 -16
-22 -31 -26 -105 -129 -143 -201 -65 -122 -85 -203 -86 -350 l0 -127 -42 -10
c-37 -10 -127 -68 -145 -95 -23 -33 -45 104 -33 201 23 196 160 434 315 548
59 43 150 77 150 56z m1996 -26 c159 -79 330 -316 371 -514 17 -82 13 -255 -6
-274 -7 -7 -19 -2 -38 17 -35 35 -99 72 -138 80 l-30 6 0 128 c0 147 -20 227
-86 350 -38 72 -112 175 -143 201 -45 37 0 41 70 6z m-255 -85 c88 -46 152
-137 189 -275 19 -69 24 -121 32 -375 5 -162 7 -398 4 -525 -3 -126 -4 -239
-4 -250 1 -27 1 -68 -1 -386 -2 -297 -6 -330 -59 -434 -39 -79 -98 -148 -264
-312 -269 -267 -334 -314 -509 -372 -37 -12 -91 -22 -120 -21 -30 0 -84 0
-120 0 -97 -1 -208 37 -290 100 -79 59 -294 255 -434 395 -103 104 -154 177
-189 274 -20 55 -21 78 -24 906 -3 819 1 985 27 985 4 0 27 -21 51 -46 117
-119 332 -197 620 -223 222 -21 387 -12 553 30 43 11 83 17 89 13 6 -4 8 -3 5
2 -3 6 8 16 25 23 17 8 69 52 117 100 118 117 154 189 159 319 l4 92 50 0 c29
0 65 -8 89 -20z m-1244 -48 c67 -22 157 -48 200 -56 180 -36 419 -45 571 -22
45 6 82 10 82 9 0 -19 -47 -87 -80 -117 -103 -93 -222 -122 -470 -113 -226 8
-431 54 -570 128 -65 35 -150 105 -150 124 0 18 60 66 102 82 61 23 180 10
315 -35z m-807 -1277 l0 -385 -33 0 c-50 0 -136 29 -183 60 -199 137 -224 424
-53 605 57 61 101 82 199 94 36 5 66 9 68 10 1 0 2 -172 2 -384z m2615 360
c70 -10 114 -30 158 -73 86 -83 128 -176 129 -284 0 -116 -41 -213 -128 -300
-47 -48 -113 -77 -206 -93 l-38 -6 0 386 c0 363 1 386 18 382 9 -3 40 -8 67
-12z m2373 -1220 c3 -3 -11 -44 -168 -495 -45 -129 -84 -243 -87 -252 -8 -28
-18 -22 -38 21 l-18 40 61 168 c48 131 139 385 187 522 4 9 14 11 33 6 15 -4
28 -8 30 -10z m-4539 -617 l82 -77 -3 -105 -3 -106 -87 84 -88 83 0 103 c0 56
4 100 9 98 5 -1 45 -38 90 -80z m3868 -4 c78 -17 77 -16 89 -97 6 -47 6 -48
-17 -43 -13 3 -82 17 -154 32 -71 14 -135 30 -142 36 -10 8 -53 120 -53 139 0
3 46 -6 103 -22 56 -16 134 -36 174 -45z m-393 -8 c9 -30 16 -58 16 -63 0 -6
-163 -81 -241 -111 -12 -5 -53 87 -44 96 7 8 236 128 247 131 4 0 14 -23 22
-53z m-1885 -112 c34 -15 61 -32 61 -38 0 -11 -102 -106 -114 -106 -2 0 -6 38
-8 85 -2 47 -2 85 -1 85 1 0 29 -12 62 -26z m-1319 -120 c108 -86 354 -164
516 -164 49 0 55 -2 69 -30 28 -54 23 -60 -57 -60 -172 0 -330 -95 -401 -240
-73 -150 -37 -346 88 -473 59 -59 125 -96 200 -111 l60 -13 3 -183 c2 -174 2
-182 -15 -169 -168 132 -412 350 -553 495 -192 198 -331 376 -443 566 -61 103
-66 118 -41 139 14 11 19 9 37 -16 28 -39 138 -155 157 -165 13 -7 15 13 13
157 l-3 165 58 -50 c31 -28 72 -65 91 -82 l33 -31 -6 -82 c-6 -81 -9 -160 -7
-184 2 -21 18 -15 80 30 l60 42 2 110 c1 61 1 114 0 119 -1 5 4 13 11 17 10 7
10 9 1 9 -10 0 -13 31 -13 120 0 66 3 120 8 120 4 0 27 -16 52 -36z m1130 -61
l0 -78 -60 -48 -60 -48 0 89 0 89 53 36 c28 20 55 36 60 36 4 1 7 -34 7 -76z
m2127 21 c4 -12 -129 -236 -142 -241 -10 -3 -85 136 -85 156 0 8 15 16 130 67
74 33 91 37 97 18z m415 -44 c117 -22 222 -44 234 -49 12 -5 24 -22 27 -38 4
-15 9 -38 13 -50 6 -20 3 -21 -38 -16 -23 3 -118 20 -209 37 l-166 31 -53 63
c-32 39 -46 62 -37 62 9 0 111 -18 229 -40z m-1688 -181 c92 -45 168 -84 171
-88 2 -4 -66 -99 -151 -212 -357 -472 -429 -587 -734 -1174 -109 -210 -220
-420 -295 -556 -176 -321 -209 -378 -218 -372 -6 3 -7 1 -3 -5 3 -6 -22 -59
-56 -117 l-63 -106 -3 361 -2 362 37 59 c21 33 63 99 94 147 134 209 169 264
244 384 44 70 83 124 89 121 5 -3 6 -1 2 5 -5 8 79 152 121 207 4 6 9 17 11
25 2 8 9 22 16 30 7 8 71 112 141 230 70 118 135 226 143 239 36 59 99 179
185 353 50 103 95 187 99 187 3 1 81 -36 172 -80z m940 -97 c40 -81 76 -156
79 -167 6 -17 -5 -26 -63 -58 l-69 -38 -41 88 c-53 111 -107 234 -112 251 -3
13 111 81 125 74 4 -2 41 -70 81 -150z m495 45 c28 -26 51 -53 51 -59 0 -9
-95 -195 -105 -207 -4 -4 -69 43 -107 78 l-28 24 47 86 c59 109 74 132 83 129
5 -2 31 -25 59 -51z m-4499 -122 c0 -71 39 -313 69 -431 103 -402 357 -912
639 -1289 102 -135 189 -241 290 -353 l84 -92 -147 -198 c-82 -108 -150 -199
-152 -202 -10 -10 -196 207 -330 385 -315 420 -538 843 -697 1330 -81 249
-139 498 -151 655 l-7 85 134 65 c192 93 251 119 260 114 4 -3 8 -34 8 -69z
m5023 52 l139 -12 35 -47 35 -48 -149 0 -149 0 -63 64 -64 64 39 -4 c21 -3
101 -11 177 -17z m-4601 -309 c113 -164 235 -306 437 -509 199 -199 381 -362
578 -517 l123 -97 0 -43 c0 -39 -14 -64 -151 -268 -83 -123 -154 -226 -159
-229 -9 -6 -124 119 -226 245 -275 339 -527 794 -648 1167 -54 169 -116 428
-116 488 0 11 19 -12 44 -55 24 -41 77 -123 118 -182z m1742 143 c3 -57 7
-106 10 -108 11 -11 141 70 203 127 31 28 36 25 18 -10 -18 -35 -354 -596
-500 -835 -54 -88 -107 -175 -117 -192 l-20 -33 -29 21 -29 20 0 240 c0 219 1
240 18 245 141 44 261 161 293 288 10 39 18 50 50 67 l39 19 0 109 c0 107 1
110 27 130 14 12 27 20 29 18 2 -1 5 -49 8 -106z m1341 79 c16 -6 23 -14 19
-22 -4 -6 -3 -8 4 -4 8 5 114 -44 150 -69 3 -3 -67 -181 -98 -250 -10 -22 -41
-96 -70 -165 -29 -69 -90 -210 -135 -315 -46 -104 -113 -260 -150 -345 -85
-198 -135 -309 -229 -513 -20 -43 -36 -80 -36 -82 0 -5 -230 -497 -307 -657
-42 -86 -80 -155 -84 -152 -5 3 -7 -1 -4 -8 3 -7 -19 -56 -48 -108 l-52 -95
-319 -3 c-294 -2 -318 -1 -312 14 4 10 44 81 90 158 96 162 175 303 301 533
48 89 93 159 98 156 6 -3 7 -1 4 4 -9 15 89 199 103 195 6 -1 9 2 5 7 -8 14
66 152 78 144 6 -3 7 -1 3 5 -8 14 268 529 334 622 11 15 20 32 20 38 0 5 12
27 28 49 34 49 48 71 68 108 9 17 49 80 89 140 39 61 87 136 105 167 19 31 38
54 44 51 5 -3 6 -1 2 5 -7 12 249 402 264 402 5 0 21 -4 35 -10z m1305 -160
c0 -18 -81 -190 -89 -190 -17 0 -132 145 -128 159 3 9 18 48 34 86 16 39 33
78 36 88 6 16 18 7 77 -55 38 -40 69 -80 70 -88z m-522 -46 c87 -31 108 -44
172 -101 39 -37 123 -132 185 -212 62 -80 122 -154 133 -164 23 -21 1 -52 223
328 l65 110 107 3 c125 3 119 14 83 -128 -34 -133 -58 -183 -122 -250 -90 -94
-121 -104 -356 -108 l-197 -4 -62 33 c-34 18 -141 88 -238 155 -135 93 -191
138 -240 194 l-64 73 104 53 c57 29 105 53 106 53 1 1 46 -15 101 -35z m-4888
-359 c128 -519 347 -1025 646 -1486 118 -183 287 -405 476 -626 49 -56 88
-105 88 -108 0 -3 -321 -5 -712 -5 l-713 0 -537 673 c-296 369 -555 692 -577
717 l-38 45 133 140 c322 340 719 680 1059 909 l100 68 13 -64 c7 -34 35 -153
62 -263z m4462 83 c13 -13 57 -63 96 -113 39 -49 87 -103 107 -118 47 -37 142
-87 166 -87 11 0 19 -7 19 -17 0 -10 -31 -83 -69 -163 -131 -275 -153 -325
-226 -505 -68 -167 -254 -685 -375 -1042 l-52 -152 -32 13 c-17 8 -83 39 -147
70 -64 31 -121 56 -127 56 -5 0 -26 -48 -46 -107 -20 -60 -40 -115 -45 -123
-6 -11 -29 -16 -79 -18 l-70 -3 18 68 c25 92 26 97 45 183 23 104 55 209 140
460 65 191 96 280 207 585 16 44 30 85 31 91 9 43 362 842 370 837 6 -3 7 -1
4 4 -10 15 23 103 38 103 1 0 13 -10 27 -22z m1267 -835 c56 -473 101 -841
146 -1176 19 -147 35 -274 35 -282 0 -13 -54 -15 -386 -15 l-387 0 7 98 c16
237 52 938 82 1595 l7 147 226 0 226 0 44 -367z m-766 25 c-3 -35 -24 -385
-47 -778 l-41 -715 -131 -3 -131 -3 -7 83 c-4 45 -4 192 0 327 7 285 6 280
131 621 79 215 214 530 227 530 2 0 2 -28 -1 -62z m-2805 -973 l-3 -117 -59
46 c-33 25 -63 46 -67 46 -5 0 -23 -19 -41 -43 -18 -24 -53 -67 -78 -97 -25
-29 -72 -85 -105 -124 -33 -39 -69 -80 -80 -91 -12 -11 -39 -42 -60 -70 -53
-67 -64 -74 -109 -75 -38 0 -38 0 -23 23 8 12 21 21 27 19 6 -1 9 2 5 8 -5 7
107 157 135 180 3 3 56 73 117 155 62 83 116 155 120 160 5 6 56 80 113 164
l105 155 3 -111 c1 -62 1 -164 0 -228z m-3207 103 c36 -40 113 -133 173 -207
l109 -133 -7 -97 c-3 -53 -6 -117 -6 -143 l0 -48 -256 0 c-200 0 -255 3 -251
13 2 6 40 164 83 349 43 186 82 338 85 338 3 0 35 -33 70 -72z m7299 -913 c0
-11 -130 -264 -138 -269 -5 -3 -1766 -6 -3913 -6 l-3904 -1 -3 140 -3 141
3981 0 c2189 0 3980 -2 3980 -5z m-380 -635 l-50 -100 -3578 0 -3577 0 -48 95
c-26 52 -47 97 -47 100 0 3 1654 5 3675 5 l3675 0 -50 -100z m-590 -460 l-50
-100 -2978 0 -2979 0 -52 100 -52 100 3080 0 3081 0 -50 -100z"/>
<path d="M5446 8417 c3 -10 9 -15 12 -12 3 3 0 11 -7 18 -10 9 -11 8 -5 -6z"/>
<path d="M5550 8316 c0 -2 8 -10 18 -17 15 -13 16 -12 3 4 -13 16 -21 21 -21
13z"/>
<path d="M5201 8266 c2 -2 26 -6 53 -9 30 -3 43 -1 35 4 -13 8 -97 13 -88 5z"/>
<path d="M5699 7993 c-13 -16 -12 -17 4 -4 9 7 17 15 17 17 0 8 -8 3 -21 -13z"/>
<path d="M5325 7979 c-11 -16 -1 -19 13 -3 7 8 8 14 3 14 -5 0 -13 -5 -16 -11z"/>
<path d="M4428 7741 c-79 -26 -128 -96 -128 -183 0 -102 67 -178 164 -186 97
-8 171 33 202 113 33 87 4 182 -72 234 -36 25 -122 36 -166 22z"/>
<path d="M5457 7719 c-75 -39 -116 -148 -88 -232 55 -167 287 -170 356 -5 8
21 15 48 15 60 0 73 -54 158 -117 184 -46 20 -121 17 -166 -7z"/>
<path d="M5848 7363 c7 -3 16 -2 19 1 4 3 -2 6 -13 5 -11 0 -14 -3 -6 -6z"/>
<path d="M5326 7337 c3 -10 9 -15 12 -12 3 3 0 11 -7 18 -10 9 -11 8 -5 -6z"/>
<path d="M5258 6863 c7 -3 16 -2 19 1 4 3 -2 6 -13 5 -11 0 -14 -3 -6 -6z"/>
<path d="M5646 6714 c-5 -14 -4 -15 9 -4 17 14 19 20 6 20 -5 0 -12 -7 -15
-16z"/>
<path d="M4510 6610 l0 -101 505 2 505 2 0 98 0 99 -505 0 -505 0 0 -100z"/>
<path d="M4440 5626 c0 -2 7 -7 16 -10 8 -3 12 -2 9 4 -6 10 -25 14 -25 6z"/>
<path d="M4497 5599 c7 -7 15 -10 18 -7 3 3 -2 9 -12 12 -14 6 -15 5 -6 -5z"/>
<path d="M4600 5550 c8 -5 22 -9 30 -9 10 0 8 3 -5 9 -27 12 -43 12 -25 0z"/>
</g>
</svg>
