<?xml version="1.0" standalone="no"?>
<!DOCTYPE svg PUBLIC "-//W3C//DTD SVG 20010904//EN"
 "http://www.w3.org/TR/2001/REC-SVG-20010904/DTD/svg10.dtd">
<svg version="1.0" xmlns="http://www.w3.org/2000/svg"
 width="730.000000pt" height="135.000000pt" viewBox="0 0 730.000000 135.000000"
 preserveAspectRatio="xMidYMid meet">

<g transform="translate(0.000000,135.000000) scale(0.100000,-0.100000)"
fill="#000000" stroke="none">
<path d="M624 1319 c-90 -26 -173 -117 -174 -188 0 -19 -9 -54 -21 -78 -14
-29 -19 -52 -14 -73 7 -31 56 -80 81 -80 8 0 14 -10 14 -23 0 -13 7 -32 15
-43 8 -10 14 -30 14 -44 0 -21 -11 -30 -77 -60 -112 -51 -187 -103 -279 -193
l-82 -80 30 -37 30 -37 -24 -74 -23 -74 -42 -3 -42 -3 50 -100 c47 -93 52 -99
80 -99 18 0 33 -6 36 -15 4 -9 19 -15 36 -15 26 0 29 2 18 15 -11 13 40 15
448 15 406 0 461 -2 456 -15 -5 -11 1 -15 19 -15 14 0 27 4 29 10 2 5 17 10
34 12 29 2 35 9 83 105 l51 103 -33 0 -33 0 -28 150 c-20 107 -25 154 -17 163
5 7 14 33 20 57 8 37 7 48 -10 71 -24 35 -24 48 6 143 14 43 24 81 22 83 -3 2
-20 6 -39 9 -34 6 -34 6 -52 -51 -13 -43 -21 -55 -34 -51 -9 2 -28 8 -41 11
-16 5 -40 0 -72 -15 -41 -20 -47 -26 -38 -41 7 -15 4 -22 -16 -35 -25 -16 -28
-16 -86 11 -66 32 -68 38 -43 115 12 38 22 51 44 59 53 18 77 102 43 151 -10
14 -16 36 -15 51 5 43 -28 107 -76 149 -68 60 -165 83 -248 59z m76 -37 c0
-15 -58 -42 -90 -42 -28 0 -31 2 -20 15 19 23 110 46 110 27z m84 -10 c8 -13
-27 -50 -49 -52 -46 -5 -49 0 -20 30 28 29 58 39 69 22z m-248 -74 c-9 -12
-16 -37 -16 -54 0 -29 -20 -51 -34 -37 -15 16 32 113 55 113 6 0 3 -10 -5 -22z
m374 -68 c0 -22 -4 -28 -15 -24 -8 4 -15 16 -15 28 0 11 -7 34 -15 50 -22 42
-18 45 15 8 19 -20 30 -43 30 -62z m-284 70 c15 -6 52 -11 82 -12 55 -2 55 -2
32 -20 -26 -21 -53 -22 -116 -7 -46 12 -59 22 -49 39 8 13 17 13 51 0z m211
-20 c8 -17 13 -73 13 -169 l0 -144 -58 -59 c-50 -50 -64 -58 -96 -58 -31 0
-45 9 -91 53 l-55 53 0 151 0 151 37 -19 c83 -42 203 -14 203 47 0 33 29 29
47 -6z m-327 -180 c0 -64 -8 -72 -40 -40 -24 24 -25 48 -4 78 29 41 44 28 44
-38z m414 44 c21 -20 20 -63 -1 -86 -26 -29 -33 -21 -33 42 0 62 7 71 34 44z
m310 -238 c-10 -31 -19 -54 -22 -52 -2 2 4 29 14 60 10 31 19 54 22 52 2 -2
-4 -29 -14 -60z m-644 -63 c0 -13 -3 -13 -15 -3 -8 7 -15 19 -15 27 0 13 3 13
15 3 8 -7 15 -19 15 -27z m510 28 c0 -5 -7 -12 -16 -15 -24 -9 -28 -7 -14 9
14 17 30 20 30 6z m60 -1 c8 -5 12 -11 9 -14 -7 -8 -49 5 -49 15 0 12 21 11
40 -1z m-345 -19 c3 -5 1 -12 -5 -16 -5 -3 -10 1 -10 9 0 18 6 21 15 7z m-130
-42 c15 0 12 -4 -13 -17 -18 -9 -35 -26 -39 -40 -7 -31 12 -73 37 -79 15 -4
20 -14 20 -36 l0 -31 -51 49 c-56 54 -109 122 -109 138 0 6 7 2 15 -9 14 -18
14 -18 15 10 0 24 2 27 15 16 8 -7 15 -21 15 -31 0 -11 5 -19 10 -19 6 0 10
18 10 39 l0 40 28 -15 c15 -7 36 -14 47 -15z m101 4 c-10 -10 -19 5 -10 18 6
11 8 11 12 0 2 -7 1 -15 -2 -18z m314 10 c-1 -18 -18 -35 -24 -24 -4 6 -4 16
-1 21 7 12 25 13 25 3z m105 -16 c7 -6 -2 -7 -25 -3 -19 3 -39 11 -44 16 -7 7
1 8 24 4 19 -4 40 -11 45 -17z m-284 -17 c18 -10 17 -14 -20 -63 -22 -29 -72
-115 -113 -192 l-73 -140 -3 50 c-3 48 2 59 77 185 45 73 83 142 87 152 6 21
17 22 45 8z m137 -14 c10 -23 7 -36 -9 -36 -4 0 -12 14 -18 30 -13 38 10 43
27 6z m76 5 c7 -10 -18 -34 -27 -25 -7 8 3 34 13 34 5 0 11 -4 14 -9z m-673
-57 c13 -68 67 -180 115 -240 l42 -51 -24 -29 -24 -29 -28 32 c-64 75 -122
197 -141 300 -8 41 -7 45 18 57 14 8 28 13 30 11 2 -2 7 -25 12 -51z m769 46
c0 -5 -9 -10 -19 -10 -11 0 -23 5 -26 10 -4 6 5 10 19 10 14 0 26 -4 26 -10z
m-611 -153 l72 -68 -22 -35 c-11 -19 -26 -33 -33 -31 -32 10 -119 171 -140
262 -6 27 -4 25 22 -15 16 -25 61 -76 101 -113z m177 127 c14 6 -28 -78 -68
-135 l-17 -24 0 39 c-1 29 5 45 24 62 14 13 28 38 32 56 5 22 8 27 11 15 2
-11 9 -16 18 -13z m200 3 c5 -14 -85 -235 -142 -349 l-34 -68 -45 0 c-44 0
-54 7 -36 26 5 5 43 73 84 151 89 165 144 253 158 253 5 0 12 -6 15 -13z m174
-19 c0 -17 -3 -18 -14 -8 -8 6 -12 18 -9 26 7 19 23 7 23 -18z m-26 -38 c29
-35 38 -34 56 10 15 36 51 43 43 8 -16 -66 -77 -77 -150 -26 -42 28 -45 32
-28 44 22 16 43 6 79 -36z m-776 -27 c17 -74 80 -203 132 -271 22 -29 40 -55
40 -57 0 -3 -47 -5 -103 -5 l-104 0 -86 112 -87 112 32 34 c41 43 146 132 156
132 4 0 13 -26 20 -57z m706 -66 c-9 -17 -34 -79 -55 -137 -21 -58 -41 -104
-46 -103 -4 1 -16 5 -25 8 -13 5 -18 2 -18 -8 0 -16 -18 -33 -26 -24 -7 7 62
216 96 292 l29 65 30 -31 c30 -30 31 -31 15 -62z m155 -94 c7 -65 15 -130 18
-145 l6 -28 -60 0 -59 0 3 63 c2 34 6 99 9 145 l6 82 32 0 33 0 12 -117z
m-127 -53 c-7 -109 -8 -115 -29 -118 -21 -3 -23 1 -23 40 0 36 48 203 56 195
1 -1 -1 -54 -4 -117z m-412 -21 c0 -21 -4 -30 -13 -26 -7 2 -26 -13 -42 -34
-16 -22 -33 -39 -39 -39 -5 0 0 10 11 23 11 12 33 41 48 65 15 23 29 42 31 42
2 0 4 -14 4 -31z m-461 -28 c12 -16 21 -39 21 -50 0 -18 -6 -21 -41 -21 -32 0
-40 3 -36 14 3 8 9 31 13 50 8 44 16 45 43 7z m1061 -131 c-10 -19 -22 -20
-453 -22 -243 0 -506 -2 -584 -4 l-143 -2 0 24 0 24 595 0 c593 0 596 0 585
-20z m-87 -66 c33 -5 44 -10 40 -20 -8 -21 -1078 -21 -1086 0 -4 11 4 16 31
19 64 6 967 7 1015 1z"/>
<path d="M594 1015 c-9 -23 3 -45 25 -45 23 0 35 28 20 46 -15 18 -38 18 -45
-1z"/>
<path d="M762 1021 c-20 -12 -10 -46 14 -49 25 -4 40 24 23 44 -13 16 -19 17
-37 5z"/>
<path d="M620 855 c0 -12 15 -15 75 -15 60 0 75 3 75 15 0 12 -15 15 -75 15
-60 0 -75 -3 -75 -15z"/>
</g>
</svg>
